# xmcd
#
# Track frame offsets:
#	150
#	23997
#	39031
#	57601
#	75740
#	93608
#	109839
#	131377
#	154303
#	173661
#
# Disc length: 2492 seconds
#
# Revision: 1
# Processed by: cddbd v1.4PL0 Copyright (c) Steve Scherf et al.
# Submitted via: EasyCDDAExtractor 5.0.6
#
DISCID=7a09ba0a
DTITLE=Mr Zay - Old School Lover
DYEAR=1900
DGENRE=blues
TTITLE0=Old School Lover
TTITLE1=Yo Girlfriend Wants To Be Yo Man
TTITLE2=Leave Before You Cheat
TTITLE3=Pop That Trunk
TTITLE4=Mega Jones
TTITLE5=Hoochie Daddy
TTITLE6=How Would You Like It Tonight
TTITLE7=Suddenly
TTITLE8=Come On, Let's Get It On
TTITLE9=Is Anybody Lonely
EXTD=
EXTT0=
EXTT1=
EXTT2=
EXTT3=
EXTT4=
EXTT5=
EXTT6=
EXTT7=
EXTT8=
EXTT9=
PLAYORDER=
